<svg xmlns="http://www.w3.org/2000/svg" version="1.1" xmlns:xlink="http://www.w3.org/1999/xlink" xmlns:svgjs="http://svgjs.dev/svgjs" width="1500" height="939" viewBox="0 0 1500 939"><g transform="matrix(1,0,0,1,-0.9090909090909918,-1.5145161290321312)"><svg viewBox="0 0 396 248" data-background-color="#e5e7eb" preserveAspectRatio="xMidYMid meet" height="939" width="1500" xmlns="http://www.w3.org/2000/svg" xmlns:xlink="http://www.w3.org/1999/xlink"><g id="tight-bounds" transform="matrix(1,0,0,1,0.2400000000000091,0.4000000000000057)"><svg viewBox="0 0 395.52 247.2" height="247.2" width="395.52"><g><svg></svg></g><g><svg viewBox="0 0 395.52 247.2" height="247.2" width="395.52"><g transform="matrix(1,0,0,1,75.54432,92.95580106808123)"><svg viewBox="0 0 244.43135999999998 61.288397863837545" height="61.288397863837545" width="244.43135999999998"><g><svg viewBox="0 0 244.43135999999998 61.288397863837545" height="61.288397863837545" width="244.43135999999998"><g><svg viewBox="0 0 407.5314769256667 102.18390676162663" height="61.288397863837545" width="244.43135999999998"><g><svg viewBox="0 0 244.43136 102.18390676162663" height="102.18390676162663" width="244.43136"><g id="textblocktransform"><svg viewBox="0 0 244.43136 102.18390676162663" height="102.18390676162663" width="244.43136" id="textblock"><g><svg viewBox="0 0 244.43136 58.62002359955507" height="58.62002359955507" width="244.43136"><g transform="matrix(1,0,0,1,0,0)"><svg width="244.43136" viewBox="-2.15 -50.2 225.73000000000002 54.900000000000006" height="58.62002359955507" data-palette-color="#001f3f"><path d="M26.2-35.6L26.2-34.15Q20.65-33.4 16.2-30.33 11.75-27.25 9.22-22.58 6.7-17.9 6.7-12.45L6.7-12.45Q6.7-7.9 8.45-5.25 10.2-2.6 13.05-2.6L13.05-2.6Q15.85-2.6 18.43-6.48 21-10.35 22.58-16.63 24.15-22.9 24.15-29.7L24.15-29.7 28.85-31.55 28.85-5.35Q28.85-3.95 29.45-3.1 30.05-2.25 31.1-2.25L31.1-2.25Q31.9-2.25 32.75-2.78 33.6-3.3 34.05-4.05L34.05-4.05 34.75-3.4Q34.05-1.85 32.6-0.8 31.15 0.25 29.3 0.25L29.3 0.25Q27 0.25 25.58-1.35 24.15-2.95 24.15-5.9L24.15-5.9 24.15-15.45 23.9-15.45Q20.3 0.55 11.7 0.55L11.7 0.55Q7.25 0.55 4.55-2.58 1.85-5.7 1.85-11.15L1.85-11.15Q1.85-17.4 5.15-22.9 8.45-28.4 14.05-31.85 19.65-35.3 26.2-35.6L26.2-35.6ZM71.4-35.6L71.4-34.15Q65.85-33.4 61.4-30.33 56.95-27.25 54.42-22.58 51.9-17.9 51.9-12.45L51.9-12.45Q51.9-7.9 53.65-5.25 55.4-2.6 58.25-2.6L58.25-2.6Q61.05-2.6 63.62-6.48 66.2-10.35 67.77-16.63 69.35-22.9 69.35-29.7L69.35-29.7 74.05-31.55 74.05-5.35Q74.05-3.95 74.65-3.1 75.25-2.25 76.3-2.25L76.3-2.25Q77.1-2.25 77.95-2.78 78.8-3.3 79.25-4.05L79.25-4.05 79.95-3.4Q79.25-1.85 77.8-0.8 76.35 0.25 74.5 0.25L74.5 0.25Q72.2 0.25 70.77-1.35 69.35-2.95 69.35-5.9L69.35-5.9 69.35-15.45 69.1-15.45Q65.5 0.55 56.9 0.55L56.9 0.55Q52.45 0.55 49.75-2.58 47.05-5.7 47.05-11.15L47.05-11.15Q47.05-17.4 50.35-22.9 53.65-28.4 59.25-31.85 64.85-35.3 71.4-35.6L71.4-35.6ZM88.79-41.7L87.09-30.05 85.44-29.45 83.39-39.85 88.79-41.7ZM88.74-24.8L88.74-4.2Q88.74-3.45 89.12-2.98 89.49-2.5 90.19-2.5L90.19-2.5Q90.74-2.5 91.42-3 92.09-3.5 92.79-4.45L92.79-4.45 93.59-3.7Q92.44-1.55 90.82-0.65 89.19 0.25 87.84 0.25L87.84 0.25Q86.04 0.25 85.07-0.9 84.09-2.05 84.09-4.8L84.09-4.8 84.09-23 88.74-24.8ZM108.24-18.9Q105.99-16.55 104.37-12.78 102.74-9 102.74-5.9L102.74-5.9Q102.74-3.2 103.92-1.38 105.09 0.45 107.69 0.45L107.69 0.45Q109.79 0.45 111.72-0.65 113.64-1.75 114.99-3.5L114.99-3.5 114.44-4.25Q112.89-3.2 111.39-3.2L111.39-3.2Q109.04-3.2 107.84-4.85 106.64-6.5 106.64-8.85L106.64-8.85Q106.64-12.65 108.59-16.05 110.54-19.45 113.54-22.65L113.54-22.65 112.74-23.35Q109.24-21.15 106.34-21.15L106.34-21.15Q104.64-21.15 103.24-22.68 101.84-24.2 101.09-26.05L101.09-26.05 97.04-21.5Q97.39-20.5 98.94-19.2L98.94-19.2 95.59-12.2 97.44-11.35 100.69-18.5Q101.54-18.15 102.09-18.05 102.64-17.95 103.59-17.95L103.59-17.95Q106.04-17.95 108.09-19.05L108.09-19.05 108.24-18.9ZM125.54-46.2L125.54-4.2Q125.54-3.6 125.89-3.05 126.24-2.5 127.09-2.5L127.09-2.5Q127.79-2.5 128.56-3.13 129.34-3.75 129.74-4.45L129.74-4.45 130.59-3.7Q129.74-2.05 128.24-0.9 126.74 0.25 125.24 0.25L125.24 0.25Q121.04 0.25 121.04-4.8L121.04-4.8 121.04-44.3 125.54-46.2ZM140.54-41.7L138.84-30.05 137.19-29.45 135.14-39.85 140.54-41.7ZM140.49-24.8L140.49-4.2Q140.49-3.45 140.86-2.98 141.24-2.5 141.94-2.5L141.94-2.5Q142.49-2.5 143.16-3 143.84-3.5 144.54-4.45L144.54-4.45 145.34-3.7Q144.19-1.55 142.56-0.65 140.94 0.25 139.59 0.25L139.59 0.25Q137.79 0.25 136.81-0.9 135.84-2.05 135.84-4.8L135.84-4.8 135.84-23 140.49-24.8ZM167.83-25.45Q169.83-25.45 170.43-23.98 171.03-22.5 171.03-19.9L171.03-19.9 171.03-18.35 171.03-4.2Q171.03-3.65 171.38-3.08 171.73-2.5 172.38-2.5L172.38-2.5Q173.23-2.5 173.83-3.05 174.43-3.6 175.03-4.45L175.03-4.45 175.78-3.7Q175.03-2.1 173.53-0.93 172.03 0.25 170.68 0.25L170.68 0.25Q168.68 0.25 167.58-1 166.48-2.25 166.48-4.8L166.48-4.8 166.48-18.05Q166.48-18.8 166.33-19.3 166.18-19.8 165.58-19.8L165.58-19.8Q163.53-19.8 161.38-15.85 159.23-11.9 157.71-7.03 156.18-2.15 156.18-0.6L156.18-0.6 151.83 0.7 151.83-20.7Q151.83-21.4 151.46-21.98 151.08-22.55 150.38-22.55L150.38-22.55Q149.18-22.55 147.78-20.4L147.78-20.4 147.03-21.2Q147.68-23 149.18-24.23 150.68-25.45 152.18-25.45L152.18-25.45Q154.28-25.45 155.31-24.45 156.33-23.45 156.33-21.7L156.33-21.7 156.33-8.55 156.53-8.55Q157.88-13 159.13-16.3 160.38-19.6 162.63-22.53 164.88-25.45 167.83-25.45L167.83-25.45ZM193.08-25.45Q195.78-25.45 197.58-24 199.38-22.55 199.38-19.7L199.38-19.7Q199.38-17.4 196.91-14.58 194.43-11.75 191.11-9.4 187.78-7.05 185.43-6.1L185.43-6.1Q186.68-4.1 188.28-3.33 189.88-2.55 192.03-2.55L192.03-2.55Q194.43-2.55 196.81-3.78 199.18-5 200.73-6.95L200.73-6.95 201.33-5.9Q198.88-2.75 196.13-1.07 193.38 0.6 189.38 0.6L189.38 0.6Q186.33 0.6 183.93-0.9 181.53-2.4 180.18-4.93 178.83-7.45 178.83-10.4L178.83-10.4Q178.83-14.1 180.83-17.6 182.83-21.1 186.13-23.28 189.43-25.45 193.08-25.45L193.08-25.45ZM190.48-22.3Q188.28-22.3 186.56-20.9 184.83-19.5 183.86-17.3 182.88-15.1 182.88-12.75L182.88-12.75Q182.88-9.65 184.33-7.45L184.33-7.45Q186.43-8.4 188.88-10.33 191.33-12.25 193.03-14.5 194.73-16.75 194.73-18.6L194.73-18.6Q194.73-22.3 190.48-22.3L190.48-22.3ZM212.43-27.05Q214.13-27.05 214.9-26.45 215.68-25.85 215.68-24.6L215.68-24.6Q215.68-23.25 215.15-22.2 214.63-21.15 214.03-20.4 213.43-19.65 213.23-19.35L213.23-19.35Q213.83-18.35 215.48-17L215.48-17Q216.83-15.85 217.63-14.95 218.43-14.05 219-12.53 219.58-11 219.58-8.8L219.58-8.8Q219.58-6.2 218.4-4.05 217.23-1.9 215.15-0.65 213.08 0.6 210.48 0.6L210.48 0.6Q208.88 0.6 206.98-0.08 205.08-0.75 204.18-2L204.18-2 207.53-6.45Q208.73-4.9 210.05-3.8 211.38-2.7 212.93-2.7L212.93-2.7Q215.08-2.7 216.6-4.13 218.13-5.55 218.13-7.55L218.13-7.55Q218.13-9.15 216.8-10.73 215.48-12.3 213.08-14.45L213.08-14.45Q212.78-14.7 211.93-15.48 211.08-16.25 210.68-16.75L210.68-16.75 207.18-11.6 205.58-12.65 209.58-18.2Q208.88-20.15 208.88-22.05L208.88-22.05Q208.88-24.2 209.83-25.63 210.78-27.05 212.43-27.05L212.43-27.05ZM212.43-25.1Q211.78-25.1 211.6-24.75 211.43-24.4 211.43-23.7L211.43-23.7Q211.43-22.8 211.68-22.15 211.93-21.5 212.03-21.25L212.03-21.25Q212.58-21.6 213.05-22.53 213.53-23.45 213.53-24.1L213.53-24.1Q213.53-24.55 213.25-24.83 212.98-25.1 212.43-25.1L212.43-25.1Z" opacity="1" transform="matrix(1,0,0,1,0,0)" fill="#001f3f" class="wordmark-text-0" data-fill-palette-color="primary" id="text-0"></path></svg></g></svg></g><g transform="matrix(1,0,0,1,3.5,70.66156004522173)"><svg viewBox="0 0 237.43136 31.522346716404893" height="31.522346716404893" width="237.43136"><g transform="matrix(1,0,0,1,0,0)"><svg width="237.43136" viewBox="-0.2200000000000002 -37.13 371.45000000000005 49.730000000000004" height="31.522346716404893" data-palette-color="#001f3f"><path d="M7.93-31.95L7.93 0 3.78 0 3.78-31.95 7.93-31.95ZM6 0L6-3.53 22.85-3.53 22.85 0 6 0ZM62.53 0.55L62.53 0.55Q56.96 0.55 54.13-2.18 51.31-4.9 51.31-9.98L51.31-9.98 51.31-14.33Q51.31-19.48 53.93-22.26 56.56-25.05 61.61-25.05L61.61-25.05Q65.01-25.05 67.28-23.79 69.56-22.53 70.71-20.2 71.86-17.88 71.86-14.65L71.86-14.65 71.86-13.75Q71.86-12.95 71.8-12.15 71.73-11.35 71.63-10.58L71.63-10.58 67.91-10.58Q67.96-11.78 67.97-12.85 67.98-13.93 67.98-14.83L67.98-14.83Q67.98-17.05 67.27-18.59 66.56-20.13 65.15-20.94 63.73-21.75 61.61-21.75L61.61-21.75Q58.46-21.75 56.88-19.93 55.31-18.1 55.31-14.7L55.31-14.7 55.31-12.38 55.33-11.88 55.33-9.55Q55.33-8.03 55.78-6.8 56.23-5.58 57.2-4.69 58.16-3.8 59.65-3.34 61.13-2.88 63.18-2.88L63.18-2.88Q65.56-2.88 67.61-3.5 69.66-4.13 71.46-5.2L71.46-5.2 71.08-1.7Q69.46-0.68 67.31-0.06 65.16 0.55 62.53 0.55ZM70.78-10.58L53.43-10.58 53.43-13.63 70.78-13.63 70.78-10.58ZM110.77 0.5L110.77 0.5Q107.94 0.5 106.22-0.35 104.49-1.2 103.72-2.93 102.94-4.65 102.94-7.23L102.94-7.23 102.94-22.63 106.94-22.63 106.94-7.7Q106.94-5.3 108.04-4.16 109.14-3.03 111.74-3.03L111.74-3.03Q113.22-3.03 114.58-3.35 115.94-3.68 117.14-4.28L117.14-4.28 116.77-0.8Q115.59-0.2 114.02 0.15 112.44 0.5 110.77 0.5ZM116.52-20.8L98.94-20.8 98.94-24.05 116.89-24.05 116.52-20.8ZM106.84-23.65L102.97-23.65 102.94-30.5 107.02-31.03 106.84-23.65ZM149.48-33.13L149.08-21 145.88-21 145.48-33.13 149.48-33.13ZM187.51 0.55L187.51 0.55Q184.56 0.55 182.36-0.09 180.16-0.73 178.71-1.48L178.71-1.48 178.34-5.23Q180.16-4.28 182.35-3.58 184.54-2.88 187.31-2.88L187.31-2.88Q190.14-2.88 191.56-3.78 192.99-4.67 192.99-6.45L192.99-6.45 192.99-6.73Q192.99-7.88 192.45-8.63 191.91-9.38 190.51-9.95 189.11-10.53 186.54-11.1L186.54-11.1Q183.46-11.78 181.69-12.69 179.91-13.6 179.15-14.95 178.39-16.3 178.39-18.25L178.39-18.25 178.39-18.48Q178.39-21.68 180.61-23.33 182.84-24.98 187.31-24.98L187.31-24.98Q190.19-24.98 192.3-24.33 194.41-23.68 195.76-22.88L195.76-22.88 196.14-19.45Q194.51-20.4 192.41-21.03 190.31-21.65 187.69-21.65L187.69-21.65Q185.79-21.65 184.61-21.26 183.44-20.88 182.91-20.16 182.39-19.45 182.39-18.45L182.39-18.45 182.39-18.25Q182.39-17.15 182.91-16.39 183.44-15.63 184.8-15.06 186.16-14.5 188.59-13.98L188.59-13.98Q191.71-13.35 193.55-12.48 195.39-11.6 196.19-10.26 196.99-8.93 196.99-6.83L196.99-6.83 196.99-6.4Q196.99-2.95 194.59-1.2 192.19 0.55 187.51 0.55ZM266.36 0L262.21 0 262.21-31.95 266.36-31.95 266.36 0ZM281.03-13.38L264.56-13.38 264.56-16.85 281.03-16.85 281.03-13.38ZM281.41-28.48L263.41-28.48 263.41-31.95 281.41-31.95 281.41-28.48ZM315.54 0L311.52 0 311.52-33.13 315.54-33.13 315.54 0ZM355.55-3.78L357.88-3.78 355.75-2.85 363.05-24.4 367.23-24.4 355.75 8.6 351.65 8.6 355.5-2.55 357.28-1 352.68-1 344.7-24.4 348.9-24.4 355.55-3.78Z" opacity="1" transform="matrix(1,0,0,1,0,0)" fill="#001f3f" class="slogan-text-1" data-fill-palette-color="secondary" id="text-1"></path></svg></g></svg></g></svg></g></svg></g><g transform="matrix(1,0,0,1,256.47289644566666,0.08483511896731244)"><svg viewBox="0 0 151.05858048000002 102.014236523692" height="102.014236523692" width="151.05858048000002"><g><svg xmlns:x="http://ns.adobe.com/Extensibility/1.0/" xmlns:i="http://ns.adobe.com/AdobeIllustrator/10.0/" xmlns:graph="http://ns.adobe.com/Graphs/1.0/" xmlns="http://www.w3.org/2000/svg" xmlns:xlink="http://www.w3.org/1999/xlink" xmlns:a="http://ns.adobe.com/AdobeSVGViewerExtensions/3.0/" version="1.1" x="0" y="0" viewBox="11.500213523461099 23.999999805019822 76.9995101815283 52.00000038996035" enable-background="new 0 0 100 100" xml:space="preserve" height="102.014236523692" width="151.05858048000002" class="icon-icon-0" data-fill-palette-color="accent" id="icon-0"><path d="M88.1 51.7L78.1 44.2A1 1 0 0 0 77.5 44H58.193L50.937 24.649A1 1 0 0 0 50 24H37.5A1 1 0 0 0 36.945 25.832L44.16 30.642 48.613 44H28.118L23.395 34.553A1 1 0 0 0 22.5 34H12.5A1 1 0 0 0 11.793 35.707L16.566 40.48 19.014 55.165A1 1 0 0 0 20 56H48.613L44.16 69.358 36.945 74.168A1 1 0 0 0 37.5 76H50A1 1 0 0 0 50.937 75.351L58.193 56H77.5C77.582 56 77.663 55.99 77.742 55.97L87.742 53.47A1 1 0 0 0 88.1 51.7M45.948 29.684A1 1 0 0 0 45.555 29.168L40.803 26H49.307L56.057 44H50.72zM49.307 74H40.803L45.555 70.832C45.739 70.708 45.878 70.527 45.948 70.316L50.72 56H56.057zM77.377 54H20.847L18.487 39.835A1 1 0 0 0 18.206 39.293L14.914 36H21.882L26.605 45.447A1 1 0 0 0 27.5 46H77.167L85.219 52.04z" fill="#001f3f" data-fill-palette-color="accent"></path></svg><g></g></g></svg></g></svg></g></svg></g></svg></g><g><path d="M245.816 0c68.262 0 123.6 55.338 123.6 123.6 0 68.262-55.338 123.6-123.6 123.6-56.378 0-103.939-37.746-118.792-89.345h1.437c14.811 50.827 61.746 87.965 117.355 87.966 67.501 0 122.221-54.72 122.22-122.221 0-67.501-54.72-122.221-122.22-122.221-55.609 0-102.544 37.138-117.355 87.966l-1.437 0c14.852-51.599 62.414-89.345 118.792-89.345z" fill="#001f3f" stroke="transparent" data-fill-palette-color="tertiary"></path></g></svg></g><defs></defs></svg><rect width="395.52" height="247.2" fill="none" stroke="none" visibility="hidden"></rect></g></svg></g></svg>